<?xml version="1.0" standalone="no"?>
<!DOCTYPE svg PUBLIC "-//W3C//DTD SVG 20010904//EN"
 "http://www.w3.org/TR/2001/REC-SVG-20010904/DTD/svg10.dtd">
<svg version="1.0" xmlns="http://www.w3.org/2000/svg"
 width="366.000000pt" height="366.000000pt" viewBox="0 0 366.000000 366.000000"
 preserveAspectRatio="xMidYMid meet">
<metadata>
Created by potrace 1.11, written by Peter Selinger 2001-2013
</metadata>
<g transform="translate(0.000000,366.000000) scale(0.100000,-0.100000)"
fill="#000000" stroke="none">
<path d="M1770 3613 c-762 -33 -1408 -523 -1638 -1244 -36 -112 -68 -263 -77
-369 -8 -82 -8 -284 0 -340 2 -19 7 -57 11 -85 3 -27 8 -59 10 -70 2 -11 6
-32 9 -48 19 -104 80 -278 145 -412 240 -501 731 -872 1280 -969 136 -24 177
-28 315 -27 162 1 215 6 340 31 721 142 1272 690 1414 1405 49 247 45 481 -13
755 -25 116 -98 308 -163 430 -239 444 -651 766 -1138 889 -142 35 -186 41
-410 54 -16 1 -55 1 -85 0z m240 -77 c30 -4 67 -8 83 -11 15 -3 55 -10 89 -16
148 -26 411 -130 548 -217 229 -146 431 -349 567 -572 77 -126 166 -337 194
-459 17 -73 19 -84 25 -121 3 -19 7 -41 10 -49 21 -63 22 -484 0 -519 -2 -4
-7 -28 -10 -53 -3 -25 -15 -79 -26 -120 -11 -41 -22 -81 -24 -89 -2 -8 -15
-44 -29 -80 -233 -612 -785 -1040 -1428 -1106 -843 -87 -1625 455 -1839 1273
-11 42 -23 97 -26 122 -3 25 -8 48 -9 52 -17 26 -23 292 -12 432 42 493 335
975 766 1261 221 146 523 252 775 273 39 3 72 6 74 8 5 4 215 -3 272 -9z"/>
<path d="M1829 3321 c-1 -58 -7 -178 -13 -252 -3 -38 -1 -71 5 -74 5 -4 10 4
10 17 1 13 3 32 4 43 1 11 3 40 3 65 l2 45 55 -3 c35 -3 55 0 55 7 0 6 -20 11
-49 11 -54 0 -59 5 -56 60 1 19 3 49 3 66 l2 31 55 -4 c34 -2 55 0 55 7 0 5
-19 11 -42 11 -24 1 -53 3 -65 4 -20 2 -23 -3 -24 -34z"/>
<path d="M1657 3343 c-3 -4 -1 -33 4 -63 5 -30 12 -75 14 -100 2 -25 7 -63 10
-85 6 -34 -6 -18 -72 97 -43 76 -82 138 -86 138 -7 0 -2 -94 8 -150 2 -9 8
-59 15 -113 7 -53 17 -97 22 -97 9 0 4 79 -8 145 -2 11 -6 47 -10 80 l-5 60
76 -132 c42 -73 81 -133 86 -133 11 0 11 -2 -1 85 -6 39 -12 86 -15 105 -2 19
-7 55 -11 80 -4 25 -8 53 -8 62 -3 21 -12 32 -19 21z"/>
<path d="M1757 3198 c3 -84 5 -165 6 -180 1 -27 16 -40 18 -15 1 14 -2 108 -6
192 -1 33 -3 81 -4 108 0 26 -5 47 -10 47 -6 0 -7 -61 -4 -152z"/>
<path d="M2060 3312 c-18 -14 -27 -43 -45 -133 -12 -63 -21 -127 -19 -144 9
-81 131 -87 148 -7 7 30 14 64 21 102 2 14 8 45 13 70 10 52 0 100 -25 117
-24 18 -67 16 -93 -5z m84 -18 c21 -20 21 -24 11 -99 -13 -103 -36 -185 -55
-195 -28 -15 -48 -12 -71 11 -22 22 -22 29 0 139 7 30 14 69 17 85 12 67 61
97 98 59z"/>
<path d="M1408 3138 l3 -163 -93 140 c-64 97 -93 134 -96 121 -2 -10 3 -37 11
-60 9 -22 32 -94 52 -158 20 -65 40 -118 46 -118 13 0 13 -3 -27 121 -19 61
-34 112 -32 114 2 3 35 -43 73 -100 37 -58 72 -105 76 -105 13 0 14 17 9 144
-3 69 -2 122 1 118 4 -4 23 -60 44 -126 21 -67 40 -115 45 -110 11 11 -91 336
-106 341 -6 2 -9 -54 -6 -159z"/>
<path d="M2287 3257 c-22 -15 -97 -220 -97 -263 0 -63 85 -98 127 -51 23 25
93 220 93 259 0 52 -79 88 -123 55z m88 -27 c18 -20 18 -24 3 -78 -58 -200
-86 -238 -146 -196 -29 20 -28 43 7 145 42 126 56 149 90 149 15 0 36 -9 46
-20z"/>
<path d="M2496 3177 c-42 -73 -148 -288 -144 -292 2 -2 23 -13 47 -23 71 -32
91 -18 165 120 67 126 65 168 -14 208 l-36 18 -18 -31z m77 -25 c29 -35 27
-52 -24 -150 -70 -135 -98 -157 -153 -117 -18 14 -18 16 5 62 121 237 118 231
138 226 11 -3 26 -12 34 -21z"/>
<path d="M1040 3150 c-32 -32 -25 -74 36 -190 58 -113 83 -137 128 -126 44 11
68 46 61 86 -7 39 -87 193 -118 228 -26 28 -79 30 -107 2z m100 -27 c12 -15
42 -68 66 -118 39 -78 44 -94 35 -117 -14 -36 -55 -47 -83 -22 -11 11 -44 66
-73 124 -43 87 -51 109 -42 125 23 44 66 47 97 8z"/>
<path d="M2393 2647 c-49 -50 -237 -284 -299 -369 -64 -89 -70 -114 -49 -183
l15 -50 -95 -140 c-52 -77 -105 -152 -117 -167 l-23 -28 -112 164 c-108 157
-124 188 -104 201 19 11 23 110 7 173 -25 100 -62 161 -151 248 -130 129 -280
189 -331 133 -13 -14 -20 -40 -22 -88 -8 -135 66 -320 169 -421 70 -69 135
-102 216 -109 l62 -6 57 -80 c32 -44 86 -120 120 -169 l63 -90 -40 -55 c-132
-186 -230 -299 -348 -405 -69 -62 -132 -125 -140 -139 -12 -22 -12 -36 -2 -82
14 -61 36 -83 79 -79 15 1 39 2 54 3 49 2 76 44 139 216 40 107 77 176 173
325 99 152 115 175 119 169 30 -43 164 -252 194 -304 22 -38 64 -132 94 -209
62 -161 86 -192 153 -197 74 -6 87 1 107 58 27 79 14 108 -79 190 -161 143
-208 193 -317 338 -61 83 -115 156 -119 163 -4 7 30 64 88 145 163 228 147
211 204 213 90 2 108 22 293 334 144 241 133 220 120 220 -5 0 -80 -99 -165
-220 -114 -159 -161 -218 -172 -213 -18 7 -29 -12 156 258 155 227 154 225
143 225 -4 0 -80 -101 -168 -225 -100 -140 -166 -223 -175 -222 -8 1 -15 5
-15 9 0 3 70 109 155 234 167 246 166 244 153 244 -4 0 -80 -101 -168 -224
-88 -124 -165 -227 -172 -230 -37 -15 -4 44 134 243 85 123 152 225 150 227
-2 2 -17 -11 -34 -29z"/>
<path d="M652 1064 c-63 -41 -111 -78 -108 -81 3 -4 29 8 58 26 l51 32 21 -25
c12 -15 32 -27 46 -28 25 -2 79 27 81 43 1 5 2 15 3 22 2 10 -31 87 -37 87 -1
0 -53 -34 -115 -76z m128 20 c17 -30 7 -51 -33 -74 -25 -14 -28 -13 -54 13
-24 24 -26 29 -12 37 9 5 27 18 40 29 32 27 43 26 59 -5z"/>
<path d="M2880 1124 c0 -3 10 -24 23 -47 45 -81 46 -79 -36 -71 -39 3 -68 2
-64 -2 4 -4 41 -11 82 -15 65 -6 82 -12 126 -44 27 -21 53 -34 57 -30 4 3 -1
12 -10 18 -89 61 -100 72 -130 133 -27 54 -48 80 -48 58z"/>
<path d="M731 944 c-56 -47 -100 -88 -97 -91 3 -3 26 12 52 33 l46 38 19 -23
c27 -33 24 -44 -21 -85 -40 -36 -47 -46 -32 -46 14 0 82 70 82 84 0 8 13 17
29 21 29 6 64 38 73 65 6 17 -14 61 -35 78 -11 9 -34 -5 -116 -74z m139 8 c0
-19 -46 -62 -67 -62 -10 0 -27 10 -37 22 -19 22 -19 22 24 61 l44 38 18 -23
c10 -13 18 -29 18 -36z"/>
<path d="M1567 1003 c-4 -3 -7 -18 -7 -31 0 -29 6 -27 12 3 2 11 14 23 28 26
l25 7 -26 1 c-14 0 -29 -2 -32 -6z"/>
<path d="M1643 1003 c-22 -8 -14 -50 13 -72 26 -20 29 -51 6 -59 -6 -2 -16 7
-21 20 -10 23 -10 23 -10 1 -1 -22 30 -40 49 -28 20 12 10 54 -16 71 -16 11
-24 24 -22 37 4 30 26 33 38 5 l10 -23 -3 25 c-2 24 -20 34 -44 23z"/>
<path d="M1718 999 c14 -5 20 -13 16 -20 -4 -8 -3 -9 5 -5 6 4 9 11 6 16 -3 5
5 11 17 13 13 2 3 5 -22 5 -37 1 -41 -1 -22 -9z"/>
<path d="M1857 1003 c-4 -3 -7 -13 -7 -22 0 -11 3 -10 15 5 12 16 16 17 24 5
11 -17 5 -37 -21 -70 -28 -36 -24 -61 10 -60 23 2 24 2 5 6 -24 5 -31 27 -12
39 6 3 18 22 26 41 11 27 11 38 2 49 -12 15 -31 18 -42 7z"/>
<path d="M1925 999 c-9 -13 -8 -93 1 -121 7 -23 38 -20 40 5 2 13 1 14 -3 2
-10 -33 -28 -6 -31 45 -4 60 12 87 28 49 l10 -24 -3 25 c-2 26 -30 39 -42 19z"/>
<path d="M1996 994 c-9 -24 -7 -31 4 -14 7 11 10 -6 11 -55 1 -38 4 -57 6 -42
4 23 9 28 24 24 16 -4 18 -3 9 8 -9 11 -7 19 12 38 12 13 24 31 24 40 3 29
-10 19 -30 -24 -27 -56 -36 -57 -36 -5 0 46 -12 61 -24 30z"/>
<path d="M2747 942 c-15 -15 -27 -31 -27 -34 0 -11 199 -178 203 -171 2 5 -15
24 -39 43 -23 19 -43 38 -43 43 -1 12 38 47 54 47 8 0 33 -16 55 -36 22 -20
40 -32 40 -26 0 17 -69 72 -91 72 -12 0 -23 10 -29 26 -13 33 -49 63 -76 64
-11 0 -32 -13 -47 -28z m109 -35 c7 -22 -14 -67 -30 -67 -6 0 -29 16 -51 35
l-40 35 28 25 c28 25 29 25 58 8 16 -10 32 -26 35 -36z"/>
<path d="M2077 953 c-10 -9 -9 -23 1 -23 5 0 9 7 9 15 0 17 -1 18 -10 8z"/>
<path d="M1730 940 c0 -5 5 -10 11 -10 5 0 7 5 4 10 -3 6 -8 10 -11 10 -2 0
-4 -4 -4 -10z"/>
<path d="M1967 935 c-4 -8 -3 -16 1 -19 4 -3 9 4 9 15 2 23 -3 25 -10 4z"/>
<path d="M1560 932 c0 -5 14 -7 30 -4 17 2 30 6 30 8 0 2 -13 4 -30 4 -16 0
-30 -4 -30 -8z"/>
<path d="M828 829 c-49 -49 -88 -93 -88 -97 0 -12 59 -66 65 -61 3 3 -9 18
-25 34 l-30 29 37 38 c20 21 42 38 48 38 5 0 19 -11 29 -25 10 -14 24 -25 29
-25 6 0 -3 15 -21 33 l-32 33 39 38 c39 38 40 39 65 22 15 -9 26 -21 26 -26 0
-6 5 -10 12 -10 7 0 -3 16 -22 35 -19 19 -36 35 -39 34 -4 0 -45 -40 -93 -90z"/>
<path d="M2072 898 c5 -35 15 -46 14 -14 -1 14 -5 29 -10 33 -4 4 -6 -4 -4
-19z"/>
<path d="M1561 888 c-1 -25 2 -28 32 -27 29 2 29 2 5 6 -18 3 -28 12 -31 26
-4 18 -5 17 -6 -5z"/>
<path d="M1730 901 c0 -6 4 -13 10 -16 6 -3 7 1 4 9 -7 18 -14 21 -14 7z"/>
<path d="M2671 860 c-17 -17 -31 -34 -31 -38 1 -4 41 -49 89 -100 l89 -93 36
32 c20 17 34 34 31 37 -3 3 -19 -8 -36 -24 l-30 -29 -41 44 -40 45 34 28 c18
15 28 28 23 28 -6 0 -22 -11 -36 -24 l-26 -24 -38 38 c-35 36 -43 70 -16 70 6
0 15 9 21 20 15 27 8 25 -29 -10z"/>
<path d="M913 735 c-45 -57 -78 -107 -74 -109 4 -3 32 26 61 65 29 38 54 68
56 66 2 -2 -12 -42 -31 -90 -18 -48 -30 -87 -25 -87 6 0 99 64 148 103 24 19
12 -1 -43 -69 -32 -41 -50 -71 -43 -73 7 -2 14 1 16 8 2 6 9 17 15 24 7 7 28
33 47 57 42 55 45 59 71 90 38 46 0 32 -88 -34 -48 -35 -89 -61 -91 -56 -2 4
15 52 38 105 22 54 40 99 40 101 0 18 -28 -11 -97 -101z"/>
<path d="M2617 813 c-3 -4 15 -53 39 -107 24 -55 43 -101 41 -102 -1 -1 -42
29 -90 68 -49 38 -91 67 -95 64 -3 -3 -3 -7 -1 -9 14 -10 116 -94 127 -105 33
-31 83 -64 89 -59 3 4 -2 22 -11 42 -19 42 -36 82 -66 155 -26 63 -26 64 -33
53z"/>
<path d="M1087 634 c-72 -111 -84 -134 -71 -134 12 0 147 217 142 229 -1 5
-34 -38 -71 -95z"/>
<path d="M2480 716 c0 -3 22 -37 48 -78 26 -40 58 -90 71 -110 12 -21 27 -38
33 -38 10 0 -3 23 -85 153 -42 65 -67 92 -67 73z"/>
<path d="M1121 608 c-28 -57 -51 -111 -51 -120 0 -10 12 -25 26 -35 23 -15 29
-15 51 -2 26 15 142 219 125 219 -6 0 -34 -45 -63 -100 -29 -55 -60 -102 -67
-105 -24 -9 -52 5 -52 26 0 20 44 113 87 182 16 26 19 37 10 37 -8 0 -37 -46
-66 -102z"/>
<path d="M2380 653 c0 -7 117 -222 125 -231 2 -2 25 9 51 24 26 15 42 30 36
32 -7 2 -27 -6 -46 -17 l-33 -21 -59 110 c-52 97 -74 127 -74 103z"/>
<path d="M1245 525 c-27 -69 -45 -128 -42 -131 6 -6 25 34 54 118 10 26 21 48
26 48 4 0 6 -4 3 -8 -3 -5 -7 -51 -11 -103 l-5 -94 22 29 c13 15 42 53 66 83
23 31 42 54 42 52 0 -2 -16 -44 -35 -92 -19 -49 -29 -87 -24 -85 13 4 108 239
102 251 -5 8 -24 -14 -101 -116 -44 -58 -56 -66 -54 -37 1 14 14 149 17 178 8
62 -13 31 -60 -93z"/>
<path d="M2310 632 c-19 -9 -36 -17 -38 -18 -4 -2 71 -182 94 -226 l14 -27 40
18 c22 10 44 22 48 26 6 7 -2 6 -63 -11 -17 -4 -25 4 -42 39 -24 50 -23 52 27
74 19 8 30 17 24 19 -6 3 -26 -2 -44 -10 l-34 -14 -23 51 c-13 27 -22 51 -21
52 2 1 18 7 36 15 35 13 52 30 30 29 -7 0 -29 -8 -48 -17z"/>
<path d="M2168 583 c-24 -6 -23 -22 13 -132 48 -149 43 -142 79 -130 61 22 66
50 29 163 -33 102 -52 117 -121 99z m82 -41 c18 -39 50 -144 50 -164 0 -10
-13 -24 -30 -33 -30 -15 -30 -15 -45 21 -8 20 -15 42 -15 48 0 6 -11 41 -24
78 l-25 67 27 9 c35 12 47 7 62 -26z"/>
<path d="M1535 518 c-4 -24 -9 -52 -11 -63 -3 -11 -7 -36 -10 -55 -3 -19 -9
-50 -14 -67 -4 -18 -5 -35 0 -38 8 -5 30 77 30 111 0 14 19 13 67 -1 7 -2 15
0 18 5 3 5 -12 13 -35 16 -44 7 -48 18 -30 85 10 36 11 37 47 28 35 -7 52 -5
42 5 -3 3 -25 8 -51 11 l-46 6 -7 -43z"/>
<path d="M1952 542 c-12 -2 -21 -6 -18 -10 2 -4 6 -34 10 -67 3 -33 8 -69 10
-80 2 -11 7 -42 11 -69 l7 -48 35 5 c49 8 63 23 63 70 0 57 -20 163 -34 182
-12 17 -44 23 -84 17z m64 -20 c18 -12 28 -52 38 -165 4 -44 -13 -67 -50 -67
-16 0 -24 6 -25 18 0 9 -2 26 -4 37 -2 11 -5 40 -8 65 -3 25 -9 58 -13 74 -5
19 -2 31 7 37 17 11 40 11 55 1z"/>
<path d="M1676 525 c-17 -18 -24 -52 -30 -147 -5 -84 14 -117 64 -110 44 6 49
18 57 153 5 82 4 87 -18 103 -29 20 -53 20 -73 1z m72 -22 c9 -18 8 -83 -3
-161 -7 -51 -42 -75 -71 -51 -13 11 -15 28 -11 100 3 47 10 96 16 108 14 26
57 28 69 4z"/>
<path d="M1820 523 c-18 -13 -20 -25 -20 -111 0 -58 5 -107 13 -122 27 -54
107 -24 107 40 0 39 -15 39 -16 -1 -2 -34 -28 -59 -55 -52 -25 7 -31 27 -35
124 -4 70 -2 90 11 103 41 40 75 6 75 -75 0 -32 4 -59 9 -59 13 0 5 128 -9
144 -16 21 -57 25 -80 9z"/>
</g>
</svg>
